<svg xmlns="http://www.w3.org/2000/svg" xmlns:xlink="http://www.w3.org/1999/xlink" width="141.168" height="52.036" viewBox="0 0 141.168 52.036">
  <defs>
    <clipPath id="clip-path">
      <rect id="Retângulo_22" data-name="Retângulo 22" width="141.168" height="52.036" fill="none"/>
    </clipPath>
  </defs>
  <g id="Grupo_33" data-name="Grupo 33" transform="translate(0 0)">
    <g id="Grupo_34" data-name="Grupo 34" transform="translate(0 0)">
      <g id="Grupo_33-2" data-name="Grupo 33" clip-path="url(#clip-path)">
        <path id="Caminho_12" data-name="Caminho 12" d="M73.411,36.009a18.62,18.62,0,0,1-7.271,1.524c-2.67.131-5.347.133-8.02.207a17.124,17.124,0,0,0-5.259.83,5.211,5.211,0,0,0-3.879,4.554,5.794,5.794,0,0,0,2.324,5.72A10.452,10.452,0,0,0,55.252,50.6a19.973,19.973,0,0,0,8.454-.057,15.082,15.082,0,0,0,6.746-3.048,7.482,7.482,0,0,0,2.973-6.384c-.061-1.4-.013-2.8-.013-4.194,0-.269,0-.538,0-.9m-23.282-5.7c-1.117-.379-2.189-.732-3.249-1.122a.521.521,0,0,1-.207-.447,11.828,11.828,0,0,1,7.268-9.422A19.2,19.2,0,0,1,62.9,17.9a20.791,20.791,0,0,1,5.856,1.088,11.933,11.933,0,0,1,8.207,10.079,27.193,27.193,0,0,1,.278,3.947c.031,5.108.013,10.216.013,15.324,0,1.822.4,2.236,2.2,2.26.257,0,.515.021.771,0,.327-.027.469.088.463.432-.018,1.033-.018,2.067-.025,3.1,0,.214-.034.4-.317.389a26.7,26.7,0,0,1-3.073-.15,4.483,4.483,0,0,1-3.811-4.63c-.045-1.107-.013-2.219-.018-3.328,0-.156-.021-.312-.037-.547-.369.735-.641,1.41-1.023,2.017a13.162,13.162,0,0,1-5.6,4.831,17.9,17.9,0,0,1-7.121,1.737,17.594,17.594,0,0,1-9.264-2.025,9.261,9.261,0,0,1-5.017-6.3,8.991,8.991,0,0,1,1.191-7.081,8.741,8.741,0,0,1,4.443-3.309,20.554,20.554,0,0,1,5.916-1.268c3.484-.216,6.975-.3,10.46-.488,1.262-.069,2.519-.265,3.77-.452a3.7,3.7,0,0,0,1.088-.43A2.066,2.066,0,0,0,73.4,30.839a13.2,13.2,0,0,0-1.045-4.5,7.508,7.508,0,0,0-5.568-4.166,22.9,22.9,0,0,0-9.1-.127,9.055,9.055,0,0,0-5.035,2.6A10.551,10.551,0,0,0,50.3,29.6c-.056.23-.11.46-.17.712" transform="translate(-7.242 -2.866)" fill="#1c1c1c"/>
        <path id="Caminho_13" data-name="Caminho 13" d="M143.141,36.031a19.852,19.852,0,0,1-7.432,1.511c-3.017.143-6.039.184-9.058.3a13.4,13.4,0,0,0-4.255.8,5.18,5.18,0,0,0-3.7,4.548A5.771,5.771,0,0,0,121,48.826a10.758,10.758,0,0,0,3.983,1.777,19.611,19.611,0,0,0,7.163.164,16.3,16.3,0,0,0,7.24-2.683,7.72,7.72,0,0,0,3.764-6.763c-.029-1.6-.008-3.191-.009-4.787Zm.014,9.957a13.771,13.771,0,0,1-8.728,7.555,18.4,18.4,0,0,1-8.812.7,15.25,15.25,0,0,1-7.078-2.831,9.252,9.252,0,0,1-2.67-11.678,8.477,8.477,0,0,1,4.868-4,20.371,20.371,0,0,1,5.919-1.263c3.467-.218,6.944-.3,10.414-.489,1.292-.071,2.578-.275,3.862-.457a3.354,3.354,0,0,0,1.017-.367,1.868,1.868,0,0,0,1.188-1.789,14.25,14.25,0,0,0-.735-4.246,7.489,7.489,0,0,0-5.875-4.939,22.838,22.838,0,0,0-9.142-.129,8.663,8.663,0,0,0-5.686,3.423,10.471,10.471,0,0,0-1.723,4.365c-.065.374-.147.492-.544.34-.887-.339-1.79-.641-2.7-.926-.336-.1-.408-.26-.346-.6a11.962,11.962,0,0,1,7.93-9.615,20.336,20.336,0,0,1,8.6-1.128,19.526,19.526,0,0,1,5.963,1.233,11.886,11.886,0,0,1,7.64,8.97,22.6,22.6,0,0,1,.437,4.889c.025,5.108.008,10.217.009,15.325,0,1.839.4,2.244,2.234,2.269,1.185.016,1.186.016,1.184,1.208,0,.761-.01,1.52-.015,2.28,0,.222,0,.446-.318.432a28.545,28.545,0,0,1-3.074-.154,4.459,4.459,0,0,1-3.807-4.441c-.052-1.138-.014-2.279-.017-3.419v-.52" transform="translate(-18.43 -2.867)" fill="#1c1c1c"/>
        <path id="Caminho_14" data-name="Caminho 14" d="M30.374,42.5l3.561,1.337c-.121.32-.217.634-.354.929a16.338,16.338,0,0,1-7.615,8.189,18.24,18.24,0,0,1-6.687,1.827,19.215,19.215,0,0,1-7.958-.878A15.539,15.539,0,0,1,.955,42.78a22.709,22.709,0,0,1,1-15.811A15.373,15.373,0,0,1,13.5,18,19.108,19.108,0,0,1,25.634,19.36a16.1,16.1,0,0,1,8.247,9.158c.009.024-.005.058-.013.132l-3.336,1.394c-.153-.352-.3-.677-.437-1.007a11.608,11.608,0,0,0-4.3-5.453,12.44,12.44,0,0,0-4.956-1.9,15.7,15.7,0,0,0-7.833.448,12.586,12.586,0,0,0-8.024,7.756,17.741,17.741,0,0,0,.394,13.842,11.983,11.983,0,0,0,9.288,7.077,17.064,17.064,0,0,0,7.462-.3,11.2,11.2,0,0,0,7.854-7.069c.118-.293.243-.584.391-.942" transform="translate(0 -2.82)" fill="#1c1c1c"/>
        <path id="Caminho_15" data-name="Caminho 15" d="M93.03,51.769V.7h3.795v.534q.01,23.261.021,46.521c0,1.2-.012,2.4-.017,3.6,0,.2.022.409-.28.408-1.161,0-2.322,0-3.518,0" transform="translate(-14.93 -0.113)" fill="#1c1c1c"/>
      </g>
    </g>
    <rect id="Retângulo_23" data-name="Retângulo 23" width="3.77" height="36.446" transform="translate(88.308 15.193)" fill="#1c1c1c"/>
    <g id="Grupo_36" data-name="Grupo 36" transform="translate(0 0)">
      <g id="Grupo_35" data-name="Grupo 35" clip-path="url(#clip-path)">
        <path id="Caminho_16" data-name="Caminho 16" d="M104.989,4.526V.674h1.159c.846,0,1.692.01,2.539-.006.291-.005.4.084.4.385,0,1.018.018,2.037.036,3.054.005.294-.077.433-.416.427-1.223-.021-2.446-.008-3.719-.008" transform="translate(-16.85 -0.107)" fill="#1c1c1c"/>
        <path id="Caminho_17" data-name="Caminho 17" d="M164.6,7.481a4.461,4.461,0,1,1-4.461-4.512A4.487,4.487,0,0,1,164.6,7.481" transform="translate(-24.984 -0.476)" fill="#f99300"/>
        <path id="Caminho_18" data-name="Caminho 18" d="M155.944,13.075a6.81,6.81,0,0,1-2.533-2.547,6.945,6.945,0,0,1-.923-3.51,6.859,6.859,0,0,1,.938-3.509A6.984,6.984,0,0,1,155.986.948,6.868,6.868,0,0,1,159.512,0a8,8,0,0,1,3.106.594,7.864,7.864,0,0,1,2.519,1.67L163.85,3.34a5.687,5.687,0,0,0-1.917-1.316,6.155,6.155,0,0,0-2.42-.467,5.1,5.1,0,0,0-2.659.735,5.478,5.478,0,0,0-1.959,2,5.365,5.365,0,0,0-.728,2.731,5.377,5.377,0,0,0,.714,2.717,5.436,5.436,0,0,0,1.931,1.981,5.115,5.115,0,0,0,2.7.735,6.168,6.168,0,0,0,2.77-.622,5.626,5.626,0,0,0,2.071-1.727l1.287,1.1a7.832,7.832,0,0,1-2.659,2.052,7.939,7.939,0,0,1-3.47.751,6.973,6.973,0,0,1-3.568-.934" transform="translate(-24.473 0)" fill="#f99300"/>
      </g>
    </g>
  </g>
</svg>
